<svg fill="#fff" xmlns="http://www.w3.org/2000/svg" viewBox="0 0 600 138.6" enable-background="new 0 0 600 138.6"><g transform="translate(.594 -.082)"><path class="st0" d="M18.5 108.2c-2.7 0-5 .9-6.9 2.8-1.9 1.9-2.8 4.2-2.8 7 0 1.8.4 3.5 1.2 4.9.8 1.5 2 2.6 3.6 3.5s3.2 1.3 4.9 1.3c1.7 0 3.3-.4 4.8-1.3s2.7-2.1 3.6-3.6c.9-1.5 1.3-3.2 1.3-4.9 0-1.7-.4-3.3-1.3-4.9-.9-1.5-2.1-2.7-3.5-3.6-1.5-.7-3.1-1.2-4.9-1.2zM6 105.9h3.1v4.4c1.2-1.7 2.7-2.9 4.3-3.8 1.6-.8 3.4-1.3 5.4-1.3 3.5 0 6.4 1.2 8.9 3.7s3.7 5.4 3.7 8.9-1.2 6.5-3.7 9c-2.4 2.5-5.4 3.7-8.9 3.7-1.9 0-3.7-.4-5.4-1.2-1.6-.8-3.1-2-4.4-3.6v12.9H6v-32.7zm42.2 2.3c-1.8 0-3.4.4-4.9 1.3-1.5.8-2.7 2-3.5 3.6-.9 1.5-1.3 3.1-1.3 4.9 0 1.7.4 3.3 1.3 4.9.9 1.5 2.1 2.7 3.6 3.6 1.5.9 3.1 1.3 4.8 1.3 1.7 0 3.4-.4 4.9-1.3 1.5-.9 2.7-2 3.6-3.5.8-1.5 1.2-3.1 1.2-4.9 0-2.8-.9-5.1-2.8-7-1.9-1.9-4.2-2.9-6.9-2.9zm12.6-2.3v24h-3.1v-4.1c-1.3 1.6-2.8 2.8-4.4 3.6-1.6.8-3.4 1.2-5.4 1.2-3.5 0-6.4-1.2-8.9-3.7s-3.7-5.5-3.7-9 1.2-6.4 3.7-8.9 5.4-3.7 8.9-3.7c2 0 3.8.4 5.5 1.3 1.6.8 3.1 2.1 4.3 3.8V106h3.1zm4.9 0H69v3.5c1-1.4 2-2.4 3-3.1 1.1-.7 2.2-1 3.3-1 .9 0 1.8.3 2.8.8l-1.6 2.6c-.7-.3-1.2-.4-1.7-.4-1 0-2.1.4-3 1.3-1 .8-1.7 2.2-2.2 3.9-.4 1.4-.6 4.1-.6 8.3v8.1h-3.2v-24zm17-8.9h3.1v8.9h5v2.7h-5v21.3h-3.1v-21.3h-4.3v-2.7h4.3zm11.9 8.9h3.1v4.3c1.3-1.6 2.7-2.9 4.2-3.7 1.5-.8 3.2-1.2 5-1.2 1.8 0 3.5.5 4.9 1.4 1.4.9 2.5 2.1 3.1 3.7.7 1.5 1 4 1 7.2V130h-3.1v-11.5c0-2.8-.1-4.6-.4-5.5-.4-1.6-1.1-2.8-2.1-3.6-1-.8-2.4-1.2-4-1.2-1.9 0-3.6.6-5.1 1.9-1.5 1.2-2.5 2.8-3 4.6-.3 1.2-.4 3.4-.4 6.5v8.8h-3.1v-24.1zm47.9 9.6c-.4-1.6-1-3-1.8-4s-1.9-1.8-3.2-2.4c-1.3-.6-2.7-.9-4.2-.9-2.4 0-4.5.8-6.2 2.3-1.3 1.1-2.2 2.8-2.9 5h18.3zm0 6.4l2.7 1.4c-.9 1.7-1.9 3-3 4.1-1.1 1-2.4 1.8-3.8 2.4-1.4.5-3 .8-4.8.8-4 0-7.1-1.3-9.4-3.9-2.3-2.6-3.4-5.5-3.4-8.7 0-3 1-5.8 2.9-8.1 2.4-3 5.6-4.5 9.7-4.5 4.2 0 7.5 1.6 10 4.7 1.8 2.2 2.7 4.9 2.7 8.2h-22c.1 2.8 1 5.1 2.7 6.9 1.8 1.8 3.9 2.7 6.5 2.7 1.2 0 2.5-.2 3.6-.6s2.2-1 3-1.7c.7-1 1.6-2.1 2.6-3.7zm7.2-16h3.2v3.5c1-1.4 2-2.4 3-3.1 1.1-.7 2.2-1 3.3-1 .9 0 1.8.3 2.8.8l-1.6 2.6c-.7-.3-1.2-.4-1.7-.4-1.1 0-2.1.4-3 1.3-1 .8-1.7 2.2-2.2 3.9-.4 1.4-.6 4.1-.6 8.3v8.1h-3.2v-24zm49.8 5l-2.5 1.5c-2.2-2.8-5.1-4.2-8.8-4.2-3 0-5.5.9-7.4 2.8-2 1.9-3 4.2-3 6.9 0 1.7.5 3.4 1.4 4.9.9 1.5 2.1 2.7 3.7 3.6 1.6.9 3.4 1.3 5.3 1.3 3.6 0 6.5-1.4 8.8-4.2l2.5 1.6c-1.2 1.7-2.7 3.1-4.7 4-2 1-4.2 1.4-6.7 1.4-3.9 0-7.1-1.2-9.6-3.6-2.5-2.4-3.8-5.4-3.8-8.8 0-2.3.6-4.5 1.8-6.5 1.2-2 2.8-3.6 4.9-4.7 2.1-1.1 4.4-1.7 7-1.7 1.6 0 3.2.2 4.7.7 1.5.5 2.8 1.1 3.8 1.9 1 .9 1.9 1.9 2.6 3.1m25.8 4.6c-.4-1.6-1-3-1.8-4s-1.9-1.8-3.2-2.4c-1.3-.6-2.7-.9-4.2-.9-2.4 0-4.5.8-6.2 2.3-1.3 1.1-2.2 2.8-2.9 5h18.3zm0 6.4l2.7 1.4c-.9 1.7-1.9 3-3 4.1-1.1 1-2.4 1.8-3.8 2.4-1.4.5-3 .8-4.8.8-4 0-7.1-1.3-9.4-3.9-2.3-2.6-3.4-5.5-3.4-8.7 0-3 1-5.8 2.9-8.1 2.4-3 5.6-4.5 9.7-4.5 4.2 0 7.5 1.6 10 4.7 1.8 2.2 2.7 4.9 2.7 8.2h-22c.1 2.8 1 5.1 2.7 6.9 1.8 1.8 3.9 2.7 6.5 2.7 1.2 0 2.5-.2 3.6-.6 1.2-.4 2.2-1 3-1.7.7-1 1.6-2.1 2.6-3.7zm8.4-16h3.1v4.3c1.3-1.6 2.7-2.9 4.2-3.7 1.5-.8 3.2-1.2 5-1.2 1.8 0 3.5.5 4.9 1.4 1.4.9 2.5 2.1 3.1 3.7.7 1.5 1 4 1 7.2V130h-3.1v-11.5c0-2.8-.1-4.6-.4-5.5-.4-1.6-1.1-2.8-2.1-3.6-1-.8-2.4-1.2-4-1.2-1.9 0-3.6.6-5.1 1.9-1.5 1.2-2.5 2.8-3 4.6-.3 1.2-.4 3.4-.4 6.5v8.8h-3.1v-24.1zm30-8.9h3.1v8.9h5v2.7h-5v21.3h-3.1v-21.3h-4.3v-2.7h4.3zm10.8 8.9h3.2v3.5c1-1.4 2-2.4 3-3.1 1.1-.7 2.2-1 3.3-1 .9 0 1.8.3 2.8.8l-1.6 2.6c-.7-.3-1.2-.4-1.7-.4-1.1 0-2.1.4-3 1.3-1 .8-1.7 2.2-2.2 3.9-.4 1.4-.6 4.1-.6 8.3v8.1h-3.2v-24zm25.9 2.3c-1.8 0-3.4.4-4.9 1.3-1.5.8-2.7 2-3.5 3.6-.9 1.5-1.3 3.1-1.3 4.9 0 1.7.4 3.3 1.3 4.9.9 1.5 2.1 2.7 3.6 3.6 1.5.9 3.1 1.3 4.8 1.3 1.7 0 3.4-.4 4.9-1.3 1.5-.9 2.7-2 3.6-3.5.8-1.5 1.2-3.1 1.2-4.9 0-2.8-.9-5.1-2.8-7-1.8-1.9-4.1-2.9-6.9-2.9zm12.6-2.3v24h-3.1v-4.1c-1.3 1.6-2.8 2.8-4.4 3.6-1.6.8-3.4 1.2-5.4 1.2-3.5 0-6.4-1.2-8.9-3.7s-3.7-5.5-3.7-9 1.2-6.4 3.7-8.9 5.4-3.7 8.9-3.7c2 0 3.8.4 5.5 1.3 1.6.8 3.1 2.1 4.3 3.8V106h3.1z"/><defs><filter id="a" filterUnits="userSpaceOnUse" x="318.7" y="96.6" width="3.1" height="33.3"><feColorMatrix values="1 0 0 0 0 0 1 0 0 0 0 0 1 0 0 0 0 0 1 0"/></filter></defs><mask maskUnits="userSpaceOnUse" x="318.7" y="96.6" width="3.1" height="33.3" id="b"><g filter="url(#a)"><path class="st0" d="M-.6 138.7h600V.1H-.6z"/></g></mask><path mask="url(#b)" d="M318.7 129.9h3.2V96.6h-3.2z"/><defs><filter id="c" filterUnits="userSpaceOnUse" x="-.6" y="18.6" width="48.9" height="48.1"><feColorMatrix values="1 0 0 0 0 0 1 0 0 0 0 0 1 0 0 0 0 0 1 0"/></filter></defs><mask maskUnits="userSpaceOnUse" x="-.6" y="18.6" width="48.9" height="48.1" id="d"><g filter="url(#c)"><path class="st0" d="M-.6 138.7h600V.1H-.6z"/></g></mask><path d="M36.5 40.8c0-4.7-4.4-11.4-12.8-11.4-7.6 0-12.8 6.4-12.8 13C10.9 50.3 16.5 56 26 56h18c-4.3 6.5-11.7 10.7-20.2 10.7-13.5 0-24.4-10.8-24.4-24s10.9-24 24.4-24 24.5 10.8 24.5 24c0 2.6-.5 5.2-1.2 7.5H19.8v-2.6l9.6-.3c4.9-.3 7.1-2.7 7.1-6.5" mask="url(#d)"/><defs><filter id="e" filterUnits="userSpaceOnUse" x="45" y="20" width="47.1" height="45.2"><feColorMatrix values="1 0 0 0 0 0 1 0 0 0 0 0 1 0 0 0 0 0 1 0"/></filter></defs><mask maskUnits="userSpaceOnUse" x="45" y="20" width="47.1" height="45.2" id="f"><g filter="url(#e)"><path class="st0" d="M-.6 138.7h600V.1H-.6z"/></g></mask><path mask="url(#f)" d="M68.6 33.5L77.9 20h12.9L74.9 41.7l17.2 23.5H78.4L68.2 50.6 57.9 65.2H45l16.9-22.9L45.5 20h13.7z"/><defs><filter id="g" filterUnits="userSpaceOnUse" x="93.9" y="18.8" width="49.2" height="65"><feColorMatrix values="1 0 0 0 0 0 1 0 0 0 0 0 1 0 0 0 0 0 1 0"/></filter></defs><mask maskUnits="userSpaceOnUse" x="93.9" y="18.8" width="49.2" height="65" id="h"><g filter="url(#g)"><path class="st0" d="M-.6 138.7h600V.1H-.6z"/></g></mask><path d="M106.3 28.9c3.4-7 9.4-10.1 15.6-10.1 11.1 0 21.2 9.3 21.2 23.9 0 14.6-10.1 23.9-21.2 23.9-6.1 0-12.2-3.1-15.6-10.1-.2-.4-.5-.3-.5.1V84H93.9V20h11.9v8.8c0 .4.3.5.5.1m12.3 27.9c6.9 0 13-5.9 13-14.2 0-8.3-6-14.2-13-14.2-6.8 0-13 5.9-13 14.2 0 8.3 6.1 14.2 13 14.2" mask="url(#h)"/><defs><filter id="i" filterUnits="userSpaceOnUse" x="146.9" y="18.6" width="48.9" height="48.1"><feColorMatrix values="1 0 0 0 0 0 1 0 0 0 0 0 1 0 0 0 0 0 1 0"/></filter></defs><mask maskUnits="userSpaceOnUse" x="146.9" y="18.6" width="48.9" height="48.1" id="j"><g filter="url(#i)"><path class="st0" d="M-.6 138.7h600V.1H-.6z"/></g></mask><path d="M184 40.8c0-4.7-4.4-11.4-12.8-11.4-7.6 0-12.8 6.4-12.8 13 0 7.9 5.6 13.5 15.1 13.5h18c-4.3 6.5-11.7 10.7-20.2 10.7-13.5 0-24.4-10.8-24.4-24s10.9-24 24.4-24c13.5 0 24.5 10.8 24.5 24 0 2.6-.5 5.2-1.2 7.5h-27.3v-2.6l9.6-.3c4.9-.2 7.1-2.6 7.1-6.4" mask="url(#j)"/><defs><filter id="k" filterUnits="userSpaceOnUse" x="199.7" y=".5" width="49.2" height="66"><feColorMatrix values="1 0 0 0 0 0 1 0 0 0 0 0 1 0 0 0 0 0 1 0"/></filter></defs><mask maskUnits="userSpaceOnUse" x="199.7" y=".5" width="49.2" height="66" id="l"><g filter="url(#k)"><path class="st0" d="M-.6 138.7h600V.1H-.6z"/></g></mask><path d="M236.4 56.4c-3.4 7-9.4 10.1-15.6 10.1-11.1 0-21.2-9.2-21.2-23.9s10.1-23.9 21.2-23.9c6.1 0 12.2 3.1 15.6 10.1.2.4.5.3.5-.1V.5h11.9v64.7h-11.9v-8.8c0-.3-.3-.4-.5 0m-12.3-28c-6.9 0-13 5.9-13 14.2 0 8.3 6 14.2 13 14.2 6.8 0 13-5.9 13-14.2 0-8.2-6.1-14.2-13-14.2" mask="url(#l)"/><defs><filter id="m" filterUnits="userSpaceOnUse" x="256.4" y=".1" width="13.9" height="65.1"><feColorMatrix values="1 0 0 0 0 0 1 0 0 0 0 0 1 0 0 0 0 0 1 0"/></filter></defs><mask maskUnits="userSpaceOnUse" x="256.4" y=".1" width="13.9" height="65.1" id="n"><g filter="url(#m)"><path class="st0" d="M-.6 138.7h600V.1H-.6z"/></g></mask><path d="M256.4 6.9c0-3.7 3.2-6.8 6.9-6.8 3.8 0 6.9 3.1 6.9 6.8s-3.2 6.8-6.9 6.8c-3.8 0-6.9-3.1-6.9-6.8zm.9 58.3h11.9V20h-11.9v45.2z" mask="url(#n)"/><defs><filter id="o" filterUnits="userSpaceOnUse" x="275.2" y="18.8" width="49.2" height="47.7"><feColorMatrix values="1 0 0 0 0 0 1 0 0 0 0 0 1 0 0 0 0 0 1 0"/></filter></defs><mask maskUnits="userSpaceOnUse" x="275.2" y="18.8" width="49.2" height="47.7" id="p"><g filter="url(#o)"><path class="st0" d="M-.6 138.7h600V.1H-.6z"/></g></mask><path d="M312 56.4c-3.4 7-9.4 10.1-15.6 10.1-11.1 0-21.2-9.2-21.2-23.9s10.1-23.9 21.2-23.9c6.1 0 12.2 3.1 15.6 10.1.2.4.5.3.5-.1V20h11.9v45.2h-11.9v-8.8c0-.3-.3-.4-.5 0m-12.3-28c-6.9 0-13 5.9-13 14.2 0 8.3 6 14.2 13 14.2 6.8 0 13-5.9 13-14.2 0-8.2-6.2-14.2-13-14.2" mask="url(#p)"/><defs><filter id="q" filterUnits="userSpaceOnUse" x="346.7" y="18.8" width="48.8" height="66.1"><feColorMatrix values="1 0 0 0 0 0 1 0 0 0 0 0 1 0 0 0 0 0 1 0"/></filter></defs><mask maskUnits="userSpaceOnUse" x="346.7" y="18.8" width="48.8" height="66.1" id="r"><g filter="url(#q)"><path class="st0" d="M-.6 138.7h600V.1H-.6z"/></g></mask><path d="M383.5 56.1c0-.4-.3-.5-.5-.1-3.4 7-9.3 10.1-15.4 10.1-11 0-21-9.1-21-23.7 0-14.5 10-23.7 21-23.7 6 0 12 3.1 15.4 10.1.2.4.5.3.5-.1V20h11.9v42.5c0 12.6-8.8 22.3-24.1 22.3-8.5 0-16-2.9-21.4-7.9l7.1-7.6c4.8 3.7 8.5 5.6 14.1 5.6 8.7 0 12.4-6 12.4-13.5v-5.3zM371 28.4c-6.8 0-12.8 5.8-12.8 14s6 14 12.8 14c6.7 0 12.8-5.8 12.8-14-.1-8.1-6.1-14-12.8-14z" mask="url(#r)"/><defs><filter id="s" filterUnits="userSpaceOnUse" x="404" y="18.8" width="24.6" height="46.4"><feColorMatrix values="1 0 0 0 0 0 1 0 0 0 0 0 1 0 0 0 0 0 1 0"/></filter></defs><mask maskUnits="userSpaceOnUse" x="404" y="18.8" width="24.6" height="46.4" id="t"><g filter="url(#s)"><path class="st0" d="M-.6 138.7h600V.1H-.6z"/></g></mask><path d="M415.9 20v9.8c0 .2.2.3.3 0 1.6-8.1 5.2-11.1 11.3-11.1h1.1V31h-5.4c-4.9 0-7.3 3.7-7.3 9v25.2H404V20h11.9z" mask="url(#t)"/><defs><filter id="u" filterUnits="userSpaceOnUse" x="429.2" y="18.6" width="49" height="48.1"><feColorMatrix values="1 0 0 0 0 0 1 0 0 0 0 0 1 0 0 0 0 0 1 0"/></filter></defs><mask maskUnits="userSpaceOnUse" x="429.2" y="18.6" width="49" height="48.1" id="v"><g filter="url(#u)"><path class="st0" d="M-.6 138.7h600V.1H-.6z"/></g></mask><path d="M453.8 18.6c13.4 0 24.4 10.8 24.4 24s-11 24-24.4 24c-13.6 0-24.6-10.8-24.6-24s11-24 24.6-24m-.1 10.6c-7.1 0-13 5.8-13 13.4 0 7.6 5.9 13.4 13 13.4s13-5.8 13-13.4c0-7.6-5.8-13.4-13-13.4" mask="url(#v)"/><defs><filter id="w" filterUnits="userSpaceOnUse" x="483.9" y="20" width="38.4" height="46.6"><feColorMatrix values="1 0 0 0 0 0 1 0 0 0 0 0 1 0 0 0 0 0 1 0"/></filter></defs><mask maskUnits="userSpaceOnUse" x="483.9" y="20" width="38.4" height="46.6" id="x"><g filter="url(#w)"><path class="st0" d="M-.6 138.7h600V.1H-.6z"/></g></mask><path d="M502.9 66.7c-11.6 0-19-6.9-19-17V20h11.9v28.7c0 4.5 3 7.4 7.4 7.4 4.1 0 7.1-3 7.1-7.3V20h11.9v29.6c0 10.2-8 17.1-19.3 17.1" mask="url(#x)"/><defs><filter id="y" filterUnits="userSpaceOnUse" x="530.5" y="18.8" width="49.2" height="65"><feColorMatrix values="1 0 0 0 0 0 1 0 0 0 0 0 1 0 0 0 0 0 1 0"/></filter></defs><mask maskUnits="userSpaceOnUse" x="530.5" y="18.8" width="49.2" height="65" id="z"><g filter="url(#y)"><path class="st0" d="M-.6 138.7h600V.1H-.6z"/></g></mask><path d="M542.9 28.9c3.4-7 9.4-10.1 15.6-10.1 11.1 0 21.2 9.3 21.2 23.9 0 14.6-10.1 23.9-21.2 23.9-6.1 0-12.2-3.1-15.6-10.1-.2-.4-.5-.3-.5.1V84h-11.9V20h11.9v8.8c0 .4.3.5.5.1m12.2 27.9c6.9 0 13-5.9 13-14.2 0-8.3-6-14.2-13-14.2-6.8 0-13 5.9-13 14.2.1 8.3 6.2 14.2 13 14.2" mask="url(#z)"/><defs><filter id="A" filterUnits="userSpaceOnUse" x="586.3" y="20" width="5.6" height="6.8"><feColorMatrix values="1 0 0 0 0 0 1 0 0 0 0 0 1 0 0 0 0 0 1 0"/></filter></defs><mask maskUnits="userSpaceOnUse" x="586.3" y="20" width="5.6" height="6.8" id="B"><g filter="url(#A)"><path class="st0" d="M-.6 138.7h600V.1H-.6z"/></g></mask><path mask="url(#B)" d="M591.9 20v1.2h-2.1v5.6h-1.4v-5.6h-2.1V20z"/><defs><filter id="C" filterUnits="userSpaceOnUse" x="592.7" y="20" width="6.7" height="6.8"><feColorMatrix values="1 0 0 0 0 0 1 0 0 0 0 0 1 0 0 0 0 0 1 0"/></filter></defs><mask maskUnits="userSpaceOnUse" x="592.7" y="20" width="6.7" height="6.8" id="D"><g filter="url(#C)"><path class="st0" d="M-.6 138.7h600V.1H-.6z"/></g></mask><path d="M597.3 20h2.1v6.8h-1.3V21l-1.3 5.7h-1.4l-1.3-5.7v5.8h-1.3V20h2.1l1.3 5.3 1.1-5.3z" mask="url(#D)"/></g></svg>